g Body_01
v 0.1 0.1 0
vn -0 -0 -1
vt 0.714275 0.886778
v 0 0.1 0
vn -0 -0 -1
vt 0 0.886778
v 0 0.13 0
vn -0 -0 -1
vt 0 1
v 0.14 0.13 0
vn -0 -0 -1
vt 1 1
v 0.1 -0.105 0
vn -0 -0 -1
vt 0.714275 0.113207
v 0.14 -0.135 0
vn -0 -0 -1
vt 1 0
v 0 -0.105 0
vn -0 -0 -1
vt 0 0.113207
v 0 -0.135 0
vn -0 -0 -1
vt 0 0
v 0.14 -0.135 0
vn 1.98254e-16 -1 -0
vt 0 0
v 0.14 -0.135 0.04
vn 1.98254e-16 -1 -0
vt 0 1
v 0 -0.135 0.04
vn 1.98254e-16 -1 -0
vt 1 1
v 0 -0.135 0
vn 1.98254e-16 -1 -0
vt 1 0
v 0.1 -0.105 0.04
vn 0 0 1
vt 0.714275 0.113207
v 0 -0.105 0.04
vn 0 0 1
vt 0 0.113207
v 0 -0.135 0.04
vn 0 0 1
vt 0 0
v 0.14 -0.135 0.04
vn 0 0 1
vt 1 0
v 0.1 0.1 0.04
vn 0 0 1
vt 0.714275 0.886778
v 0.14 0.13 0.04
vn 0 0 1
vt 1 1
v 0 0.1 0.04
vn 0 0 1
vt 0 0.886778
v 0 0.13 0.04
vn 0 0 1
vt 0 1
v 0.1 0.1 0
vn -0 -1 -0
vt 0 1
v 0.1 0.1 0.04
vn -0 -1 -0
vt 1 1
v 0 0.1 0.04
vn -0 -1 -0
vt 1 0
v 0 0.1 0
vn -0 -1 -0
vt 0 0
v 0 -0.135 0
vn -1 -0 0
vt 1 0
v 0 -0.135 0.04
vn -1 -0 0
vt 0 0
v 0 -0.105 0.04
vn -1 -0 0
vt 0 1
v 0 -0.105 0
vn -1 -0 0
vt 1 1
v 0 0.13 0
vn 0 1 0
vt 0 0
v 0 0.13 0.04
vn 0 1 0
vt 1 0
v 0.14 0.13 0.04
vn 0 1 0
vt 1 1
v 0.14 0.13 0
vn 0 1 0
vt 0 1
v 0.1 -0.105 0
vn -1 -0 0
vt 1 0
v 0.1 -0.105 0.04
vn -1 -0 0
vt 0 0
v 0.1 0.1 0.04
vn -1 -0 0
vt 0 1
v 0.1 0.1 0
vn -1 -0 0
vt 1 1
v 0 0.1 0
vn -1 -0 0
vt 1 0
v 0 0.1 0.04
vn -1 -0 0
vt 0 0
v 0 0.13 0.04
vn -1 -0 0
vt 0 1
v 0 0.13 0
vn -1 -0 0
vt 1 1
v 0 -0.105 0
vn 0 1 0
vt 0 0
v 0 -0.105 0.04
vn 0 1 0
vt 1 0
v 0.1 -0.105 0.04
vn 0 1 0
vt 1 1
v 0.1 -0.105 0
vn 0 1 0
vt 0 1
v 0.14 0.13 0
vn 1 0 -0
vt 1 1
v 0.14 0.13 0.04
vn 1 0 -0
vt 0 1
v 0.14 -0.135 0.04
vn 1 0 -0
vt 0 0
v 0.14 -0.135 0
vn 1 0 -0
vt 1 0
f 1/1/1 2/2/2 3/3/3
f 3/3/3 4/4/4 1/1/1
f 5/5/5 1/1/1 4/4/4
f 4/4/4 6/6/6 5/5/5
f 7/7/7 5/5/5 6/6/6
f 6/6/6 8/8/8 7/7/7
f 9/9/9 10/10/10 11/11/11
f 11/11/11 12/12/12 9/9/9
f 13/13/13 14/14/14 15/15/15
f 15/15/15 16/16/16 13/13/13
f 17/17/17 13/13/13 16/16/16
f 16/16/16 18/18/18 17/17/17
f 19/19/19 17/17/17 18/18/18
f 18/18/18 20/20/20 19/19/19
f 21/21/21 22/22/22 23/23/23
f 23/23/23 24/24/24 21/21/21
f 25/25/25 26/26/26 27/27/27
f 27/27/27 28/28/28 25/25/25
f 29/29/29 30/30/30 31/31/31
f 31/31/31 32/32/32 29/29/29
f 33/33/33 34/34/34 35/35/35
f 35/35/35 36/36/36 33/33/33
f 37/37/37 38/38/38 39/39/39
f 39/39/39 40/40/40 37/37/37
f 41/41/41 42/42/42 43/43/43
f 43/43/43 44/44/44 41/41/41
f 45/45/45 46/46/46 47/47/47
f 47/47/47 48/48/48 45/45/45
